<svg width="1326" height="849" viewBox="0 0 1326 849" fill="none" xmlns="http://www.w3.org/2000/svg">
<g clip-path="url(#clip0_49_682)">
<rect width="1326" height="849" fill="white"/>
<rect width="1326" height="849" fill="url(#paint0_linear_49_682)"/>
<path d="M1326 447.027V849.065H0C0 686.434 0 523.803 0 361.149C1.07368 360.813 2.125 360.5 2.66184 360.321C3.57895 358.711 4.02632 356.989 5.12237 356.296C6.19605 355.625 7.58289 355.714 7.85132 353.992C7.91842 353.612 8.99211 353.12 9.61842 353.098C16.6197 353.031 23.6434 353.053 30.8461 353.053C31.1368 352.36 31.3829 350.392 32.2553 350.056C34.7605 349.095 37.4895 348.424 40.1513 348.312C46.325 348.088 52.4987 348.222 58.6724 348.312C60.8421 348.357 62.2961 349.564 62.3855 351.823C62.4974 354.484 64.2868 355.401 66.4118 355.535C71.8474 355.893 77.3053 355.983 82.7632 356.206C84.3737 356.273 84.9776 355.58 84.8658 353.925C84.7539 352.159 84.8658 350.347 84.9553 348.558C85.0447 346.478 86.0737 346.478 87.125 347.082C86.7895 349.944 86.1184 352.516 86.4316 354.932C86.5658 355.849 88.9368 356.81 90.4355 357.146C92.225 357.548 91.9789 355.893 91.9789 354.775C91.9789 352.986 91.8447 351.197 91.9118 349.408C91.9566 348.491 92.2921 347.574 92.5158 346.657C92.829 346.657 93.1197 346.679 93.4329 346.702C93.6342 347.663 93.9697 348.625 93.9921 349.587C94.0368 351.465 93.925 353.344 93.8579 355.222C93.7684 357.682 95.5803 357.213 97.0342 357.325C98.4882 357.436 99.6066 357.079 99.3158 355.312C98.9803 353.321 100.233 351.018 98.0184 349.385C97.7276 349.184 97.7724 348.133 98.0184 347.663C98.6 346.5 99.1816 345.181 100.166 344.443C101.374 343.548 103.029 342.676 104.393 342.81C105.512 342.922 106.541 344.465 107.503 345.472C108.353 346.366 108.957 347.552 109.874 348.334C112.826 350.839 113.05 353.836 110.276 356.05C109.851 356.385 109.314 356.609 108.688 356.944C111.663 358.309 113.654 357.011 113.833 353.925C113.967 351.331 114.146 348.737 114.325 345.606C115.13 346.299 115.443 346.433 115.488 346.612C116.182 349.52 116.942 352.427 117.479 355.357C117.747 356.833 117.949 358.018 119.805 357.906C121.528 357.794 121.393 356.631 121.349 355.401C121.282 353.612 121.259 351.823 121.349 350.034C121.416 348.737 121.684 347.44 121.841 346.143C122.243 346.165 122.646 346.21 123.026 346.232C123.026 348.044 123.026 349.855 123.026 351.667C123.026 352.964 122.892 354.417 124.838 354.104C126.471 353.858 128.954 354.842 128.864 351.644C128.82 350.19 128.864 348.737 128.864 347.283C129.245 347.283 129.625 347.283 130.005 347.283C130.005 349.408 129.826 351.532 130.05 353.635C130.318 355.916 130.542 357.973 126.672 358.264C129.334 358.868 131.034 359.315 132.779 359.606C133.271 359.695 134.255 359.315 134.3 359.024C134.636 356.989 134.926 354.932 134.993 352.874C135.038 351.599 134.703 350.28 134.389 349.028C134.166 348.111 133.875 347.104 133.271 346.411C132.041 344.98 131.728 342.453 132.868 341.267C134.032 340.037 137.968 339.769 139.154 341.066C140.586 342.631 140.742 344.286 138.818 345.874C137.611 346.881 138.036 350.28 139.199 351.622C140.071 352.628 140.384 353.702 138.595 354.171C137.499 354.462 136.582 354.775 137.096 356.363C137.275 356.9 136.559 357.727 136.157 358.599C137.275 359.203 138.304 360.232 139.378 360.299C146.983 360.724 154.588 360.925 162.193 361.82C172.796 363.072 183.555 363.139 194.247 363.676C196.082 363.765 196.775 364.571 196.618 366.382C196.484 367.992 196.372 369.625 196.574 371.19C196.641 371.817 197.491 372.778 198.072 372.868C201.405 373.337 204.761 373.673 208.116 373.919C216.75 374.545 225.384 375.126 234.018 375.686C242.183 376.222 250.37 376.692 258.534 377.229C266.967 377.765 275.4 378.392 283.833 378.861C288.664 379.13 293.496 378.995 298.305 379.398C301.012 379.622 302.153 379.04 301.772 376.2C301.459 373.874 302.13 372.13 304.636 371.123C305.53 370.765 306.313 369.021 306.358 367.88C306.626 361.797 306.559 355.714 306.783 349.654C306.828 348.491 307.588 347.373 308.036 346.232C308.528 347.261 309.042 348.267 309.557 349.296C309.601 349.363 309.668 349.43 309.736 349.497C312.942 349.959 315.171 348.871 316.424 346.232C316.58 345.897 317.139 345.382 317.296 345.449C317.699 345.628 318.236 346.053 318.303 346.433C318.504 347.686 318.974 348.357 320.405 348.178C321.278 348.066 322.195 348.222 323.067 348.312C325.125 348.536 326.847 348.401 327.049 345.695C327.093 345.181 327.787 344.689 328.614 343.638C329.017 345.583 329.286 346.814 329.554 348.133C330.404 348.088 331.254 348.29 331.791 347.976C333.424 346.97 336.712 347.976 336.354 344.353C336.332 344.085 337.361 343.481 337.942 343.392C340.425 343.012 340.045 345.091 340.313 346.881C344.384 345.807 348.634 348.312 352.571 345.337C352.795 348.312 354.92 348.29 357.157 348.133C358.051 348.066 358.946 348.222 359.841 348.155C361.675 348.021 363.532 347.798 365.366 347.596C365.366 347.328 365.343 347.06 365.321 346.791C365.97 347.194 366.909 348.088 367.222 347.909C368.788 346.992 369.347 347.865 370.197 348.983C371.383 350.504 376.371 350.235 376.796 348.647C377.266 346.903 378.451 346.344 379.726 346.791C380.33 347.015 380.755 348.625 380.755 349.631C380.822 355.983 380.755 362.334 380.666 368.686C380.643 370.586 381.136 371.503 383.238 371.369C385.184 371.235 387.197 371.257 389.121 371.548C390.105 371.705 391.693 372.465 391.805 373.158C392.297 376.2 392.611 379.331 392.476 382.417C392.364 385.123 392.387 385.481 395.093 385.347C395.809 385.302 396.525 385.19 397.241 385.19C400.864 385.19 402.743 387.024 402.743 390.535C402.743 397.602 402.721 404.669 402.654 411.736C402.654 413.883 403.034 415.27 405.472 416.164C408.067 417.104 410.393 418.893 412.63 420.57C413.413 421.152 414.241 422.784 413.972 423.5C413.301 425.199 412.205 426.922 410.841 428.107C409.186 429.538 407.016 428.576 406.255 426.407C405.383 423.902 404.153 423.477 401.58 424.775C402.609 428.621 405.92 429.829 408.939 431.573C411.064 432.803 413.682 433.653 414.487 436.672C414.979 438.551 416.299 440.228 417.261 441.973C415.65 444.075 413.861 444.88 411.311 443.001C410.17 442.151 408.604 441.749 407.15 441.413C405.271 441.011 403.347 440.877 401.446 440.631C401.67 440.921 401.871 441.235 402.095 441.525C401.871 443.046 401.58 444.589 401.446 446.132C401.401 446.781 401.737 447.452 401.893 448.123C402.028 448.682 402.251 449.286 402.184 449.822C401.938 452.171 401.446 454.496 401.401 456.822C401.401 457.583 402.229 458.723 402.967 459.103C406.568 460.915 410.282 462.48 413.905 464.225C418.491 466.439 423.009 468.787 427.595 470.979C429.317 471.806 431.151 471.538 432.024 469.816C433.008 467.825 433.522 465.589 434.104 463.397C434.417 462.212 434.35 460.915 434.641 459.707C435.849 454.608 437.37 449.509 432.695 445.126C432.314 444.768 432.695 442.643 433.254 442.375C436.699 440.72 437.459 439.781 437.504 436.091C437.526 433.72 436.9 431.26 438.913 429.247C439.226 428.934 438.757 427.906 438.689 427.212C438.533 425.267 438.242 423.321 438.332 421.375C438.488 418.088 439.114 414.823 439.137 411.557C439.137 404.602 438.376 397.602 438.936 390.714C439.271 386.554 439.182 383.58 434.999 381.746C434.417 381.5 433.858 379.912 434.104 379.308C434.439 378.526 435.558 377.721 436.453 377.586C438.466 377.296 439.383 376.558 439.517 374.366C439.584 373.315 440.747 371.705 441.687 371.481C445.646 370.564 449.717 370.094 453.743 369.446C454.482 369.334 455.689 369.289 455.846 368.864C456.674 366.785 457.636 364.615 457.792 362.446C458.083 358.174 458.239 353.836 457.747 349.587C457.457 346.992 455.779 344.555 454.907 341.983C454.571 340.999 454.303 339.433 454.817 338.83C456.271 337.085 458.083 335.609 459.85 334.155C461.371 332.903 461.975 331.449 461.55 329.504C461.147 327.737 461.505 326.194 463.138 325.031C463.966 324.449 464.995 323.577 465.174 322.705C465.979 318.769 466.382 314.766 467.142 310.807C467.701 307.967 468.484 305.172 469.334 302.399C469.804 300.833 470.318 299.111 471.325 297.881C474.389 294.034 477.566 290.255 480.966 286.721C485.663 281.801 491.233 278.089 497.608 275.606C499.286 274.958 500.717 273.616 502.171 272.498C504.274 270.843 504.184 268.539 504.028 266.146C503.983 265.498 504.855 264.201 505.258 264.223C509.195 264.424 509.396 262.143 508.882 259.214C508.792 258.632 508.949 257.961 509.128 257.38C509.776 255.143 510.85 252.974 511.074 250.693C511.409 247.338 511.074 243.894 511.163 240.495C511.23 237.431 510.201 235.217 507.204 233.987C506.622 233.741 505.929 232.086 506.153 231.84C507.025 230.856 508.143 229.85 509.351 229.469C511.879 228.687 512.818 227.009 511.857 224.527C511.611 223.901 511.655 222.805 512.058 222.335C514.026 219.987 516.464 217.952 518.164 215.425C519.775 213.054 523.578 210.997 520.424 207.195C520.245 206.993 520.424 206.501 520.424 206.144C520.513 204.354 520.536 202.543 520.692 200.776C520.804 199.457 520.983 198.137 521.341 196.885C522.079 194.447 522.638 192.121 520.625 190.422C521.609 189.214 522.414 188.185 523.376 187C524.182 187.38 525.747 187.671 525.926 188.319C526.799 191.607 527.604 194.984 527.828 198.383C528.074 202.275 527.649 206.188 527.649 210.102C527.649 211.041 527.85 212.16 528.387 212.875C530.646 215.894 532.704 219.227 535.567 221.575C538.117 223.655 536.932 224.616 535.164 226.316C536.439 227.434 537.67 228.463 538.855 229.536C539.907 230.476 541.249 231.303 541.83 232.488C542.054 232.958 540.757 234.68 539.817 235.083C537.804 235.933 537.178 237.409 537.334 239.287C537.737 244.476 535.545 249.932 538.811 254.875C538.945 255.054 538.811 255.389 538.811 255.658C538.878 257.782 539.034 259.907 539.012 262.054C539.012 263.552 539.504 264.514 541.137 264.469C544.022 264.402 544.738 265.766 544.313 268.495C543.955 270.753 544.716 272.967 546.953 274.086C549.525 275.383 552.478 276.098 554.826 277.709C559.121 280.616 563.304 283.792 567.196 287.236C572.565 291.977 576.658 297.881 578.917 304.613C580.774 310.159 581.243 316.175 582.496 321.945C582.854 323.555 583.391 325.97 584.487 326.418C586.791 327.334 586.858 328.52 586.657 330.51C586.522 331.852 586.657 333.619 587.395 334.58C589.162 336.794 591.421 338.651 593.434 340.663C593.591 340.82 593.546 341.155 593.546 341.178C592.428 342.475 590.616 343.593 590.571 344.778C590.28 352.785 590.347 360.813 590.347 368.842C590.347 369.245 590.795 369.916 591.153 370.005C593.211 370.497 595.291 370.855 597.349 371.257C600.189 371.817 603.053 372.286 605.849 373.002C606.453 373.158 607.347 374.277 607.258 374.769C606.721 377.43 608.533 378.056 610.322 378.906C611.15 379.308 612.492 380.27 612.38 380.673C612.067 381.813 611.396 383.2 610.434 383.781C606.497 386.085 606.05 387.337 607.929 390.244C607.616 393.04 607.057 395.142 607.191 397.177C607.996 409.097 605.625 421.129 608.667 432.982C609.159 434.906 608.712 437.075 608.757 439.132C608.824 442.084 612.112 445.372 615.109 445.282C617.95 445.193 620.791 444.679 623.632 444.5C628.955 444.164 634.301 444.008 639.625 443.672C643.047 443.471 644.479 442.084 645.15 438.842C645.307 438.104 645.843 437.433 646.201 436.739C647.074 437.701 647.163 438.596 647.566 439.311C647.946 440.005 648.662 440.497 649.221 441.078C649.803 440.407 650.943 439.647 650.854 439.043C650.675 437.5 649.87 436.046 649.445 434.548C649.221 433.72 648.863 432.602 649.243 431.998C650.228 430.388 651.48 428.934 652.755 427.525C653.628 426.564 654.701 425.781 655.909 424.73C659.824 427.324 663.604 430.343 662.038 436.404C661.725 437.589 661.837 438.909 661.971 440.139C662.038 440.832 662.575 441.458 662.911 442.107C663.291 441.548 663.604 440.899 664.074 440.452C664.745 439.826 665.572 439.334 666.311 438.774C666.758 439.423 667.384 440.027 667.586 440.743C667.832 441.637 667.742 442.643 667.809 443.672C671.679 444.321 675.347 444.835 678.971 445.596C682.237 446.289 685.436 447.385 688.724 448.033C691.072 448.48 693.443 449.375 695.815 447.474C697.112 446.423 698.946 445.842 700.646 445.573C702.368 445.305 702.57 444.388 702.637 443.024C702.995 437.075 703.442 431.126 703.778 425.2C704.046 420.391 704.18 415.561 704.426 410.73C704.449 410.059 704.717 409.41 704.874 408.762C705.097 408.784 705.321 408.829 705.545 408.851C705.634 409.522 705.813 410.193 705.813 410.864C705.925 420.704 706.014 430.545 706.082 440.385C706.104 443.829 706.372 444.075 709.795 443.538C710.511 443.426 711.182 443.135 711.897 443.113C713.575 443.068 715.499 442.599 716.863 443.27C722.746 446.177 728.428 449.442 734.221 452.528C735.093 452.998 736.1 453.222 737.039 453.557C737.218 452.551 737.576 451.544 737.576 450.516C737.643 435.755 737.666 420.995 737.643 406.235C737.643 403.931 738.315 402.388 740.909 402.321C743.862 402.254 746.814 402.209 749.745 402.097C754.576 401.919 759.386 401.717 764.217 401.449C767.058 401.292 769.876 400.845 772.717 400.8C775.245 400.756 777.571 398.251 780.255 400.196C780.322 400.241 780.568 400.062 780.926 399.928C780.837 397.535 782.313 397.021 784.393 397.49C786.832 398.05 789.247 399.19 791.663 399.212C796.83 399.28 802.02 398.788 807.209 398.519C813.718 398.161 820.228 397.289 826.714 397.558C840.091 398.139 853.422 399.414 866.799 400.219C879.996 401.024 893.216 401.628 906.413 402.299C909.612 402.455 910.484 403.327 910.484 406.526C910.484 417.081 910.484 427.637 910.507 438.193C910.507 454.027 910.507 469.861 910.596 485.694C910.596 486.566 911.245 488.043 911.826 488.154C913.437 488.49 915.137 488.266 916.814 488.266C914.824 487.014 913.795 485.918 914.958 483.682C915.159 483.301 914.712 482.541 914.533 481.959C913.974 480.17 914.645 479.231 916.501 479.052C921.736 478.582 926.947 478.023 932.182 477.643C933.568 477.531 933.926 477.017 934.083 475.698C934.486 471.985 932.965 468.027 935.425 464.538C935.537 464.381 935.201 463.912 935.112 463.576C934.396 461.027 935.514 459.372 938.132 459.305C944.126 459.148 950.121 459.081 956.093 458.902C958.755 458.813 961.417 458.567 964.079 458.365C967.345 458.119 970.633 457.784 973.899 457.65C974.592 457.627 975.643 458.097 975.957 458.656C976.874 460.333 978.283 460.356 979.849 460.356C994.053 460.356 1008.28 460.356 1022.48 460.512C1023.36 460.512 1024.94 461.586 1025.01 462.257C1025.44 467.289 1025.57 472.343 1025.75 477.375C1025.79 478.918 1026.51 479.343 1027.96 479.231C1032.48 478.851 1037.02 478.65 1041.54 478.202C1054.07 476.995 1066.66 478.001 1079.23 476.436C1091.31 474.937 1103.64 475.206 1115.85 474.848C1121.35 474.669 1126.88 474.825 1132.63 474.825C1132.63 473.215 1132.63 472.343 1132.63 471.471C1132.63 464.135 1132.63 456.8 1132.63 449.464C1132.63 445.528 1133.23 445.171 1137.23 445.596C1141.28 446.02 1145.35 446.199 1149.42 446.289C1151.01 446.334 1152.58 445.685 1154.17 445.596C1166.31 444.992 1178.46 444.544 1190.58 443.851C1196.87 443.493 1203.15 442.8 1209.44 442.196C1212.82 441.861 1216.04 441.503 1219.41 442.867C1221.79 443.829 1224.67 443.538 1227.33 443.784C1227.33 443.471 1227.36 443.135 1227.38 442.822C1226.24 442.778 1224.98 442.979 1223.96 442.599C1222.86 442.196 1221.38 441.413 1221.11 440.497C1220.58 438.707 1222.1 437.746 1223.71 437.477C1226.59 437.03 1229.5 436.516 1232.41 436.449C1234.56 436.404 1236.73 437.187 1238.92 437.343C1246.57 437.88 1254.22 438.417 1261.89 438.774C1269.65 439.155 1277.46 439.244 1285.22 439.624C1287.12 439.714 1288.98 440.519 1291.26 441.078C1290.48 442.174 1289.88 442.643 1289.94 443.001C1290.17 444.075 1290.61 445.104 1291.13 446.088C1291.19 446.199 1292.49 446.02 1292.6 445.73C1293.7 442.889 1295.67 444.052 1297.53 444.522C1298.8 444.835 1300.08 445.305 1301.35 445.327C1307.97 445.417 1314.59 445.417 1321.19 445.35C1322.51 445.35 1323.81 444.969 1325.22 444.746C1325.42 445.372 1325.69 446.199 1325.98 447.004L1326 447.027ZM596.968 394.673C594.53 395.903 594.128 397.781 594.15 400.04C594.262 409.321 594.262 418.602 594.307 427.861C594.307 428.487 594.508 429.113 594.62 429.762C594.888 429.762 595.157 429.762 595.403 429.739C595.917 418.11 596.432 406.458 596.946 394.695L596.968 394.673ZM455.511 394.829C455.354 394.829 455.175 394.829 455.018 394.829V416.522C455.175 416.522 455.354 416.522 455.511 416.522V394.829ZM106.496 357.302C106.563 357.079 106.63 356.877 106.697 356.654C105.243 355.468 103.789 354.305 101.821 352.718C101.463 354.708 101.262 355.871 100.993 357.302H106.474H106.496ZM1242.41 444.433C1242.41 444.589 1242.39 444.746 1242.36 444.902H1254.89C1254.89 444.746 1254.89 444.589 1254.89 444.433H1242.41ZM206.729 376.491C206.729 376.737 206.684 377.005 206.662 377.251C207.691 377.654 208.675 378.168 209.726 378.436C210.151 378.548 210.711 378.19 211.225 378.034C210.889 377.519 210.643 376.625 210.218 376.558C209.078 376.356 207.892 376.491 206.707 376.491H206.729ZM101.687 347.35C103.409 350.459 103.588 350.436 106.272 347.35H101.687Z" fill="black"/>
</g>
<defs>
<linearGradient id="paint0_linear_49_682" x1="663" y1="0" x2="663" y2="489" gradientUnits="userSpaceOnUse">
<stop stop-color="#B0B0B0"/>
<stop offset="0.59" stop-color="#EEDBC5"/>
<stop offset="1" stop-color="#DBB283"/>
</linearGradient>
<clipPath id="clip0_49_682">
<rect width="1326" height="849" fill="white"/>
</clipPath>
</defs>
</svg>
